<svg width="86" height="49" viewBox="0 0 86 49" fill="none" xmlns="http://www.w3.org/2000/svg">
<path d="M22.488 48.96C19.5013 48.96 16.696 48.4373 14.072 47.392C11.4693 46.3253 9.176 44.768 7.192 42.72C5.22933 40.672 3.69333 38.1653 2.584 35.2C1.47467 32.2133 0.92 28.8 0.92 24.96C0.92 19.9253 1.85867 15.6267 3.736 12.064C5.61333 8.48 8.184 5.73867 11.448 3.84C14.712 1.92 18.392 0.959999 22.488 0.959999C28.1627 0.959999 32.6533 2.28267 35.96 4.928C39.288 7.552 41.5387 11.2427 42.712 16L34.84 17.248C33.9653 14.5173 32.536 12.3413 30.552 10.72C28.568 9.07733 26.04 8.256 22.968 8.256C19.8747 8.21333 17.304 8.88533 15.256 10.272C13.208 11.6587 11.6613 13.6107 10.616 16.128C9.592 18.6453 9.08 21.5893 9.08 24.96C9.08 28.3307 9.592 31.264 10.616 33.76C11.64 36.2347 13.176 38.1653 15.224 39.552C17.2933 40.9387 19.8747 41.6533 22.968 41.696C25.2933 41.7173 27.3307 41.3013 29.08 40.448C30.8293 39.5733 32.2587 38.2613 33.368 36.512C34.4773 34.7413 35.224 32.5333 35.608 29.888H27.48V23.84H43.8C43.8427 24.1813 43.8747 24.6827 43.896 25.344C43.9173 26.0053 43.928 26.4 43.928 26.528C43.928 30.88 43.064 34.752 41.336 38.144C39.6293 41.5147 37.176 44.16 33.976 46.08C30.776 48 26.9467 48.96 22.488 48.96Z" fill="#101913"/>
<path d="M50.855 48V1.92H69.895C70.343 1.92 70.919 1.94133 71.623 1.984C72.327 2.00533 72.9777 2.06933 73.575 2.176C76.2417 2.58133 78.439 3.46666 80.167 4.832C81.9163 6.19733 83.207 7.92533 84.039 10.016C84.8923 12.0853 85.319 14.3893 85.319 16.928C85.319 19.4453 84.8923 21.7493 84.039 23.84C83.1857 25.9093 81.8843 27.6267 80.135 28.992C78.407 30.3573 76.2203 31.2427 73.575 31.648C72.9777 31.7333 72.3163 31.7973 71.591 31.84C70.887 31.8827 70.3217 31.904 69.895 31.904H58.567V48H50.855ZM58.567 24.704H69.575C70.0017 24.704 70.4817 24.6827 71.015 24.64C71.5483 24.5973 72.039 24.512 72.487 24.384C73.767 24.064 74.7697 23.4987 75.495 22.688C76.2417 21.8773 76.7643 20.96 77.063 19.936C77.383 18.912 77.543 17.9093 77.543 16.928C77.543 15.9467 77.383 14.944 77.063 13.92C76.7643 12.8747 76.2417 11.9467 75.495 11.136C74.7697 10.3253 73.767 9.76 72.487 9.44C72.039 9.312 71.5483 9.23733 71.015 9.216C70.4817 9.17333 70.0017 9.152 69.575 9.152H58.567V24.704Z" fill="#3C9379"/>
</svg>
