<svg width="203" height="33" viewBox="0 0 203 33" fill="none" xmlns="http://www.w3.org/2000/svg">
<g clip-path="url(#clip0_169_420)">
<path d="M8.79306 25.9C7.1749 23.3667 6.16355 19.9 6.16355 16.5667C6.16355 13.3 7.04005 10.1667 8.59079 7.5L8.79306 7.16667C10.3438 4.1 13.7824 2.03333 17.1535 2.03333C19.3785 2.03333 21.6709 2.7 23.4913 3.63333C26.7951 5.63333 29.4246 8.7 30.9079 12.3V6.83333C30.9079 5.63333 29.02 4.23333 29.02 4.23333C25.7837 1.9 21.8057 0.5 17.4907 0.5C15.7377 0.5 13.3104 0.966667 13.3104 0.966667C5.96128 2.56667 0.5 8.96667 0.5 16.5667C0.5 24.7 6.70294 31.4333 14.7263 32.3C14.7263 32.3 16.3445 32.5667 17.4907 32.5C22.1429 32.5 26.4579 30.9 29.8291 28.1667L30.3011 27.7C30.7056 27.1667 30.9753 26.5 30.9753 25.8333V21.3C30.9753 19.9667 31.6495 18.7667 32.6609 18.0333H23.9633C24.9746 18.7667 25.6489 19.9667 25.6489 21.3L25.7163 25.5667C25.7163 26.4333 25.3792 27.1667 24.8398 27.7667C24.1656 28.5667 21.4686 29.9 21.4686 29.9C20.1876 30.5667 18.7043 30.9667 17.0861 30.9667C13.4453 30.8333 10.3438 28.8333 8.79306 25.9Z" fill="#1B1B1B"/>
<path d="M96.3084 16.5C96.3084 24.1 101.77 30.3667 108.984 31.9C108.984 31.9 111.411 32.3667 113.164 32.3667C117.479 32.3667 121.39 31.0333 124.626 28.7C124.626 28.7 126.581 27.5 126.581 26.3L127.323 20.5C125.098 25.9667 121.322 28.0333 119.165 29.2333C117.344 30.1667 114.985 30.8333 112.827 30.8333C109.456 30.8333 106.017 28.9667 104.467 25.9L104.264 25.5667C102.714 22.9 101.837 19.8333 101.837 16.5C101.837 13.2333 102.714 10.1 104.264 7.43333L104.467 7.1C106.017 4.03333 109.456 1.96667 112.827 1.96667C115.052 1.96667 117.344 2.63333 119.165 3.56667C122.469 5.56667 125.098 8.63333 126.581 12.2333V6.76667C126.581 5.56667 124.694 4.16667 124.694 4.16667C121.457 1.83333 117.479 0.5 113.164 0.5C111.411 0.5 108.984 0.966667 108.984 0.966667C101.702 2.43333 96.3084 8.83333 96.3084 16.5Z" fill="#1B1B1B"/>
<path d="M146.269 16.5C146.269 24.1 151.73 30.3667 158.945 31.9C158.945 31.9 161.372 32.3667 163.125 32.3667C167.44 32.3667 171.35 31.0333 174.587 28.7C174.587 28.7 176.542 27.5 176.542 26.2333L177.284 20.4333C175.059 25.9 171.283 27.9667 169.126 29.1667C167.305 30.1 164.945 30.7667 162.788 30.7667C159.417 30.7667 155.978 28.8333 154.427 25.8333L154.225 25.5C152.674 22.8333 151.798 19.7667 151.798 16.4333C151.798 13.1667 152.674 10.0333 154.225 7.36667L154.427 7.03333C155.978 3.96667 159.417 1.9 162.788 1.9C165.013 1.9 167.305 2.56667 169.126 3.5C172.429 5.5 175.059 8.56667 176.542 12.1667V6.83333C176.542 5.63333 174.654 4.23333 174.654 4.23333C171.485 1.9 167.507 0.5 163.192 0.5C161.439 0.5 159.012 0.966667 159.012 0.966667C151.73 2.5 146.269 8.9 146.269 16.5Z" fill="#1B1B1B"/>
<path d="M202.5 1.89999H194.14C195.151 2.63333 195.825 3.76666 195.825 5.09999V29.1667C195.825 30.4333 195.218 31.6333 194.207 32.3H202.365C201.421 31.5667 200.747 30.4333 200.747 29.1667V5.09999C200.814 3.76666 201.421 2.56666 202.5 1.89999Z" fill="#1B1B1B"/>
<path d="M58.0794 1.89999H49.719C50.7303 2.63333 51.4045 3.83333 51.4045 5.16666V23.1667C51.6742 26.4333 53.7644 29.2333 56.6636 30.5667C59.0234 31.7 61.6529 32.3667 64.4846 32.3667C67.3164 32.3667 70.0808 31.7667 72.4406 30.5667H72.508C75.4072 29.2333 77.4973 26.4333 77.767 23.1667V5.03333C77.767 3.69999 78.4413 2.56666 79.4526 1.89999H74.5981C75.6095 2.63333 76.2837 3.69999 76.2837 5.03333V23.1667V23.2333C76.0814 25.2333 75.0701 26.9667 73.6542 28.1667L73.5868 28.2333C71.9686 29.5 69.0694 30.4333 66.3051 30.4333C64.6195 30.4333 63.0013 30.1 61.4506 29.5L61.3158 29.4333C58.6188 28.5 56.6636 26.0333 56.3264 23.1V23.0333V5.16666C56.3264 3.76666 57.0681 2.56666 58.0794 1.89999Z" fill="#1B1B1B"/>
</g>
<defs>
<clipPath id="clip0_169_420">
<rect width="202" height="32" fill="white" transform="translate(0.5 0.5)"/>
</clipPath>
</defs>
</svg>
