<svg width="202" height="41" viewBox="0 0 202 41" fill="none" xmlns="http://www.w3.org/2000/svg">
<path d="M2.88 32V6.08H7.218V27.932H18.666V32H2.88ZM28.8013 32.54C26.8573 32.54 25.1593 32.102 23.7073 31.226C22.2553 30.35 21.1273 29.144 20.3233 27.608C19.5313 26.06 19.1353 24.284 19.1353 22.28C19.1353 20.24 19.5433 18.452 20.3593 16.916C21.1753 15.38 22.3093 14.18 23.7613 13.316C25.2133 12.452 26.8933 12.02 28.8013 12.02C30.7573 12.02 32.4613 12.458 33.9133 13.334C35.3653 14.21 36.4933 15.422 37.2973 16.97C38.1013 18.506 38.5033 20.276 38.5033 22.28C38.5033 24.296 38.0953 26.078 37.2793 27.626C36.4753 29.162 35.3473 30.368 33.8953 31.244C32.4433 32.108 30.7453 32.54 28.8013 32.54ZM28.8013 28.472C30.5293 28.472 31.8133 27.896 32.6533 26.744C33.4933 25.592 33.9133 24.104 33.9133 22.28C33.9133 20.396 33.4873 18.896 32.6353 17.78C31.7833 16.652 30.5053 16.088 28.8013 16.088C27.6373 16.088 26.6773 16.352 25.9213 16.88C25.1773 17.396 24.6253 18.122 24.2653 19.058C23.9053 19.982 23.7253 21.056 23.7253 22.28C23.7253 24.164 24.1513 25.67 25.0033 26.798C25.8673 27.914 27.1333 28.472 28.8013 28.472ZM40.9692 32V12.56H44.8032V17.294L44.3352 16.682C44.5752 16.034 44.8932 15.446 45.2892 14.918C45.6972 14.378 46.1832 13.934 46.7472 13.586C47.2272 13.262 47.7552 13.01 48.3312 12.83C48.9192 12.638 49.5192 12.524 50.1312 12.488C50.7432 12.44 51.3372 12.464 51.9132 12.56V16.61C51.3372 16.442 50.6712 16.388 49.9152 16.448C49.1712 16.508 48.4992 16.718 47.8992 17.078C47.2992 17.402 46.8072 17.816 46.4232 18.32C46.0512 18.824 45.7752 19.4 45.5952 20.048C45.4152 20.684 45.3252 21.374 45.3252 22.118V32H40.9692ZM62.3346 32.54C60.3666 32.54 58.6386 32.114 57.1506 31.262C55.6626 30.41 54.4986 29.228 53.6586 27.716C52.8306 26.204 52.4166 24.464 52.4166 22.496C52.4166 20.372 52.8246 18.53 53.6406 16.97C54.4566 15.398 55.5906 14.18 57.0426 13.316C58.4946 12.452 60.1746 12.02 62.0826 12.02C64.0986 12.02 65.8086 12.494 67.2126 13.442C68.6286 14.378 69.6786 15.704 70.3626 17.42C71.0466 19.136 71.3046 21.158 71.1366 23.486H66.8346V21.902C66.8226 19.79 66.4506 18.248 65.7186 17.276C64.9866 16.304 63.8346 15.818 62.2626 15.818C60.4866 15.818 59.1666 16.37 58.3026 17.474C57.4386 18.566 57.0066 20.168 57.0066 22.28C57.0066 24.248 57.4386 25.772 58.3026 26.852C59.1666 27.932 60.4266 28.472 62.0826 28.472C63.1506 28.472 64.0686 28.238 64.8366 27.77C65.6166 27.29 66.2166 26.6 66.6366 25.7L70.9206 26.996C70.1766 28.748 69.0246 30.11 67.4646 31.082C65.9166 32.054 64.2066 32.54 62.3346 32.54ZM55.6386 23.486V20.21H69.0126V23.486H55.6386ZM96.4715 32V20.192C96.4715 18.86 96.1415 17.822 95.4815 17.078C94.8215 16.322 93.9275 15.944 92.7995 15.944C92.1035 15.944 91.4795 16.106 90.9275 16.43C90.3755 16.742 89.9375 17.21 89.6135 17.834C89.2895 18.446 89.1275 19.178 89.1275 20.03L87.2015 18.896C87.1895 17.552 87.4895 16.37 88.1015 15.35C88.7255 14.318 89.5655 13.514 90.6215 12.938C91.6775 12.362 92.8535 12.074 94.1495 12.074C96.2975 12.074 97.9415 12.722 99.0815 14.018C100.233 15.302 100.809 16.994 100.809 19.094V32H96.4715ZM73.0895 32V12.56H76.9235V18.59H77.4635V32H73.0895ZM84.8075 32V20.246C84.8075 18.89 84.4775 17.834 83.8175 17.078C83.1575 16.322 82.2575 15.944 81.1175 15.944C80.0135 15.944 79.1255 16.322 78.4535 17.078C77.7935 17.834 77.4635 18.818 77.4635 20.03L75.5195 18.734C75.5195 17.474 75.8315 16.34 76.4555 15.332C77.0795 14.324 77.9195 13.532 78.9755 12.956C80.0435 12.368 81.2375 12.074 82.5575 12.074C84.0095 12.074 85.2215 12.386 86.1935 13.01C87.1775 13.622 87.9095 14.462 88.3895 15.53C88.8815 16.586 89.1275 17.78 89.1275 19.112V32H84.8075Z" fill="#101913"/>
<path d="M104.364 9.608V5.63H108.702V9.608H104.364ZM104.364 32V12.56H108.702V32H104.364ZM121.936 32.54C120.04 32.54 118.45 32.09 117.166 31.19C115.882 30.29 114.916 29.066 114.268 27.518C113.62 25.958 113.296 24.212 113.296 22.28C113.296 20.324 113.62 18.572 114.268 17.024C114.916 15.476 115.864 14.258 117.112 13.37C118.372 12.47 119.926 12.02 121.774 12.02C123.61 12.02 125.2 12.47 126.544 13.37C127.9 14.258 128.95 15.476 129.694 17.024C130.438 18.56 130.81 20.312 130.81 22.28C130.81 24.224 130.444 25.97 129.712 27.518C128.98 29.066 127.948 30.29 126.616 31.19C125.284 32.09 123.724 32.54 121.936 32.54ZM112.558 40.64V12.56H116.392V26.204H116.932V40.64H112.558ZM121.27 28.652C122.398 28.652 123.328 28.37 124.06 27.806C124.792 27.242 125.332 26.48 125.68 25.52C126.04 24.548 126.22 23.468 126.22 22.28C126.22 21.104 126.04 20.036 125.68 19.076C125.32 18.104 124.762 17.336 124.006 16.772C123.25 16.196 122.29 15.908 121.126 15.908C120.022 15.908 119.122 16.178 118.426 16.718C117.73 17.246 117.214 17.99 116.878 18.95C116.554 19.898 116.392 21.008 116.392 22.28C116.392 23.54 116.554 24.65 116.878 25.61C117.214 26.57 117.736 27.32 118.444 27.86C119.164 28.388 120.106 28.652 121.27 28.652ZM140.327 32.54C137.927 32.54 135.977 32 134.477 30.92C132.977 29.84 132.065 28.322 131.741 26.366L136.169 25.682C136.397 26.642 136.901 27.398 137.681 27.95C138.461 28.502 139.445 28.778 140.633 28.778C141.677 28.778 142.481 28.574 143.045 28.166C143.621 27.746 143.909 27.176 143.909 26.456C143.909 26.012 143.801 25.658 143.585 25.394C143.381 25.118 142.925 24.854 142.217 24.602C141.509 24.35 140.423 24.032 138.959 23.648C137.327 23.216 136.031 22.754 135.071 22.262C134.111 21.758 133.421 21.164 133.001 20.48C132.581 19.796 132.371 18.968 132.371 17.996C132.371 16.784 132.689 15.728 133.325 14.828C133.961 13.928 134.849 13.238 135.989 12.758C137.129 12.266 138.473 12.02 140.021 12.02C141.533 12.02 142.871 12.254 144.035 12.722C145.211 13.19 146.159 13.856 146.879 14.72C147.599 15.584 148.043 16.598 148.211 17.762L143.783 18.554C143.675 17.726 143.297 17.072 142.649 16.592C142.013 16.112 141.161 15.842 140.093 15.782C139.073 15.722 138.251 15.878 137.627 16.25C137.003 16.61 136.691 17.12 136.691 17.78C136.691 18.152 136.817 18.47 137.069 18.734C137.321 18.998 137.825 19.262 138.581 19.526C139.349 19.79 140.489 20.114 142.001 20.498C143.549 20.894 144.785 21.35 145.709 21.866C146.645 22.37 147.317 22.976 147.725 23.684C148.145 24.392 148.355 25.25 148.355 26.258C148.355 28.214 147.641 29.75 146.213 30.866C144.797 31.982 142.835 32.54 140.327 32.54ZM158.087 32.558C156.647 32.558 155.459 32.318 154.523 31.838C153.587 31.358 152.843 30.746 152.291 30.002C151.739 29.258 151.331 28.466 151.067 27.626C150.803 26.786 150.629 25.994 150.545 25.25C150.473 24.494 150.437 23.882 150.437 23.414V12.56H154.829V21.92C154.829 22.52 154.871 23.198 154.955 23.954C155.039 24.698 155.231 25.418 155.531 26.114C155.843 26.798 156.299 27.362 156.899 27.806C157.511 28.25 158.333 28.472 159.365 28.472C159.917 28.472 160.463 28.382 161.003 28.202C161.543 28.022 162.029 27.716 162.461 27.284C162.905 26.84 163.259 26.234 163.523 25.466C163.787 24.698 163.919 23.726 163.919 22.55L166.493 23.648C166.493 25.304 166.169 26.804 165.521 28.148C164.885 29.492 163.943 30.566 162.695 31.37C161.447 32.162 159.911 32.558 158.087 32.558ZM164.441 32V25.97H163.919V12.56H168.275V32H164.441ZM195.179 32V20.192C195.179 18.86 194.849 17.822 194.189 17.078C193.529 16.322 192.635 15.944 191.507 15.944C190.811 15.944 190.187 16.106 189.635 16.43C189.083 16.742 188.645 17.21 188.32 17.834C187.997 18.446 187.835 19.178 187.835 20.03L185.909 18.896C185.897 17.552 186.197 16.37 186.809 15.35C187.433 14.318 188.273 13.514 189.329 12.938C190.385 12.362 191.561 12.074 192.857 12.074C195.005 12.074 196.649 12.722 197.789 14.018C198.941 15.302 199.517 16.994 199.517 19.094V32H195.179ZM171.797 32V12.56H175.631V18.59H176.171V32H171.797ZM183.515 32V20.246C183.515 18.89 183.185 17.834 182.525 17.078C181.865 16.322 180.965 15.944 179.825 15.944C178.721 15.944 177.833 16.322 177.161 17.078C176.501 17.834 176.171 18.818 176.171 20.03L174.227 18.734C174.227 17.474 174.539 16.34 175.163 15.332C175.787 14.324 176.627 13.532 177.683 12.956C178.751 12.368 179.945 12.074 181.265 12.074C182.717 12.074 183.929 12.386 184.901 13.01C185.885 13.622 186.617 14.462 187.097 15.53C187.589 16.586 187.835 17.78 187.835 19.112V32H183.515Z" fill="#3C9379"/>
</svg>
