<svg width="153" height="35" viewBox="0 0 153 35" fill="none" xmlns="http://www.w3.org/2000/svg">
<g clip-path="url(#clip0_169_418)">
<path d="M76.1564 21.4867C76.1564 17.5752 79.4356 14.4159 83.4954 14.4159C87.5553 14.4159 90.8344 17.5752 90.8344 21.4867C90.8344 25.3982 87.5553 28.5575 83.4954 28.5575C79.4356 28.5575 76.1564 25.4735 76.1564 21.4867ZM106.137 21.4867C106.137 17.5752 109.416 14.4159 113.476 14.4159C117.536 14.4159 120.815 17.5752 120.815 21.4867C120.815 25.3982 117.536 28.5575 113.476 28.5575C109.416 28.6327 106.137 25.4735 106.137 21.4867ZM36.5728 21.4867C36.5728 17.5752 39.8519 14.4159 43.9117 14.4159C47.9716 14.4159 51.2507 17.5752 51.2507 21.4867C51.2507 25.3982 47.9716 28.5575 43.9117 28.5575C39.8519 28.6327 36.5728 25.4735 36.5728 21.4867ZM6.59221 21.4867C6.59221 17.5752 9.87133 14.4159 13.9312 14.4159C17.9911 14.4159 21.2702 17.5752 21.2702 21.4867C21.2702 25.3982 17.9911 28.5575 13.9312 28.5575C9.87133 28.6327 6.59221 25.4735 6.59221 21.4867ZM67.256 8.92478H60.8539V33.7478H67.256V8.92478ZM21.2702 33.823H27.6723V9H21.2702V11.031C19.0841 9.60177 16.5077 8.77434 13.6189 8.77434C6.27992 8.69912 0.346268 14.4159 0.346268 21.4867C0.346268 28.6327 6.27992 34.3496 13.697 34.3496C16.5077 34.3496 19.1622 33.5221 21.3483 32.0929V33.823H21.2702ZM120.815 33.823H127.217V9H120.815V11.031C118.629 9.60177 116.052 8.77434 113.164 8.77434C105.825 8.77434 99.813 14.4912 99.813 21.6372C99.813 28.7832 105.747 34.5 113.164 34.5C115.974 34.5 118.629 33.6726 120.815 32.2434V33.823ZM129.559 25.7743C129.793 30.8142 134.166 34.3496 141.661 34.3496C147.751 34.3496 152.747 31.792 152.747 26.2257C152.747 22.3142 150.483 20.0575 145.252 19.0796L141.192 18.3274C138.538 17.8761 136.742 17.3496 136.742 15.8451C136.742 14.1903 138.538 13.4381 140.724 13.4381C143.925 13.4381 145.252 15.0177 145.33 16.823H151.81C151.42 11.9336 147.438 8.69911 140.88 8.69911C134.166 8.69911 130.184 12.2345 130.184 16.8982C130.184 22.5398 134.946 23.4425 139.006 24.1947L142.363 24.7965C144.784 25.2478 145.877 25.9248 145.877 27.2788C145.877 28.4823 144.628 29.6858 141.817 29.6858C137.601 29.6858 136.274 27.5796 136.196 25.7743H129.559ZM51.2507 0.5V10.9558C49.0646 9.52655 46.4882 8.69911 43.5994 8.69911C36.2605 8.69911 30.2487 14.4159 30.2487 21.5619C30.3268 28.6327 36.2605 34.3496 43.6775 34.3496C46.4882 34.3496 49.1427 33.5221 51.3288 32.0929V33.823H57.7309V0.5H51.2507ZM90.8344 0.5V10.9558C88.6483 9.52655 86.0719 8.69911 83.1831 8.69911C75.8441 8.69911 69.8324 14.4159 69.8324 21.5619C69.8324 28.708 75.7661 34.4248 83.1831 34.4248C85.9938 34.4248 88.6483 33.5973 90.8344 32.1681V33.8982H97.2365V0.5H90.8344ZM60.8539 0.5V6.66814H67.256V0.5" fill="#101913"/>
</g>
<defs>
<clipPath id="clip0_169_418">
<rect width="153" height="34" fill="white" transform="translate(0 0.5)"/>
</clipPath>
</defs>
</svg>
