<svg width="208" height="27" viewBox="0 0 208 27" fill="none" xmlns="http://www.w3.org/2000/svg">
<g clip-path="url(#clip0_169_416)">
<path d="M197.166 4.9824H197.307C197.63 6.6256 197.771 7.3744 198.099 8.56693L200.008 16.6373H194.42L196.328 8.56693C196.608 7.3744 196.794 6.6256 197.165 4.9824M202.238 26.1516H207.5L200.892 0.994H193.722L187.065 26.1533H192.046L193.534 20.5235H200.75L202.238 26.1516V26.1516ZM175.659 26.4983C178.546 26.4983 181.339 25.7529 183.156 24.9556V12.356H175.054V16.3895H178.362V22.0159C177.755 22.4145 176.728 22.6659 175.616 22.6659C172.171 22.6659 171.099 20.8233 171.099 15.4951V12.252C171.099 6.974 172.121 4.38267 175.287 4.38267C177.475 4.38267 178.224 5.97733 178.273 7.67253H183.254C183.199 3.23867 180.223 0.5 175.286 0.5C168.393 0.5 165.883 4.78133 165.883 11.7095V15.3963C165.835 22.9155 168.212 26.5 175.658 26.5M152.341 4.9824H152.483C152.807 6.6256 152.949 7.3744 153.272 8.56693L155.184 16.6373H149.597L151.505 8.56693C151.783 7.3744 151.969 6.6256 152.341 4.9824M157.416 26.1533H162.672L156.067 0.994H148.893L142.243 26.1533H147.224L148.712 20.5235H155.925L157.416 26.1516V26.1533ZM132.277 26.1533H137.257V0.994H132.277V26.1533ZM118.592 26.5C124.129 26.5 126.83 23.7579 126.969 18.6341H121.944C121.851 21.1232 121.103 22.6659 118.733 22.6659C116.035 22.6659 115.013 20.6257 115.013 15.3963V11.7095C115.013 6.428 116.035 4.43813 118.733 4.43813C121.249 4.43813 121.666 6.23213 121.757 8.12493H126.783C126.734 3.74133 124.409 0.604 118.594 0.604C112.122 0.604 109.751 4.93733 109.751 11.7095V15.3963C109.751 22.2187 112.12 26.5 118.592 26.5ZM84.8897 26.1533H89.3143V11.5587C89.3143 9.5168 89.2173 7.026 89.1235 4.9824H89.269C89.9644 7.572 90.3364 8.91707 90.9881 10.8584L96.1566 26.1533H103.418V0.994H98.9948V14.9959C98.9948 16.8332 99.0433 19.2772 99.0886 21.6172H98.9495C98.5776 19.8717 98.2477 18.128 97.2709 15.2905L92.4306 0.995733H84.846V26.1533H84.8897V26.1533ZM64.594 26.1533H78.1396V22.1147H69.5749V15.1415H77.3455V11.0612H69.5733V4.9824H77.8129V0.9472H64.5891V26.1499L64.594 26.1533ZM46.3958 26.1533H59.4303V22.1147H51.3767V0.995733H46.3958V26.1533ZM30.9419 4.98067H31.0826C31.4061 6.62387 31.5516 7.37267 31.8751 8.5652L33.7833 16.6356H28.1992L30.1075 8.5652C30.3856 7.37267 30.5732 6.62387 30.9436 4.98067M36.0167 26.1533H41.2774L34.6663 0.994H27.4989L20.841 26.1533H25.8219L27.3097 20.5235H34.5272L36.0183 26.1516L36.0167 26.1533ZM5.52622 22.3157V14.9976H8.55359C11.1136 14.9976 12.3216 16.2421 12.3216 18.6792C12.3216 21.3659 10.74 22.3677 8.4598 22.3677H5.52622V22.3157V22.3157ZM5.52622 11.1583V4.83333H8.64739C10.9244 4.83333 11.9028 5.92533 11.9028 7.97067C11.9028 10.016 10.7918 11.16 8.69429 11.16H5.52622V11.1583ZM0.545281 26.1533H9.34278C14.2752 26.1533 17.2993 24.2553 17.2993 19.0293C17.2993 15.6909 15.4881 13.4029 12.134 13.0493V12.9037C15.1097 12.356 16.8821 10.6123 16.8821 7.2756C16.8821 2.9388 14.5534 0.997467 9.57566 0.997467H0.5V26.1533H0.545281Z" fill="#101913"/>
</g>
<defs>
<clipPath id="clip0_169_416">
<rect width="207" height="26" fill="white" transform="translate(0.5 0.5)"/>
</clipPath>
</defs>
</svg>
